<svg width="102" height="32" viewBox="0 0 102 32" fill="none" xmlns="http://www.w3.org/2000/svg">
<path d="M29.24 22.68c-.16-.39-.31-.8-.47-.85-.15-.05-.3-.09-.46-.09-.17 0-.34.04-.5.09-.16.05-.31.1-.47.1-.15 0-.3-.04-.46-.1-.17-.05-.33-.09-.5-.09-.16 0-.31.04-.46.09-.16.05-.32.1-.47.1-.16 0-.31-.05-.46-.1-.16-.05-.31-.09-.46-.09-.17 0-.34.04-.5.09-.16.05-.32.1-.47.1-.16 0-.31-.05-.46-.1-.16-.05-.31-.09-.46-.09-.17 0-.34.04-.5.09-.16.05-.32.1-.47.1-.16 0-.31-.05-.46-.1-.16-.05-.31-.09-.46-.09-.17 0-.34.04-.5.09-.16.05-.32.1-.47.1h-.46c-.16 0-.31-.05-.46-.1-.16-.05-.31-.09-.46-.09-.17 0-.34.04-.5.09-.16.05-.32.1-.47.1-.16 0-.31-.05-.46-.1-.16-.05-.31-.09-.46-.09-.17 0-.34.04-.5.09-.16.05-.32.1-.47.1-.16 0-.31-.05-.46-.1-.16-.05-.31-.09-.46-.09-.17 0-.34.04-.5.09-.16.05-.32.1-.47.1h-.46c-.16 0-.31-.05-.46-.1-.16-.05-.31-.09-.46-.09-.17 0-.34.04-.5.09-.16.05-.32.1-.47.1-.16 0-.31-.05-.46-.1-.16-.05-.31-.09-.46-.09-.17 0-.34.04-.5.09-.16.05-.32.1-.47.1-.16 0-.31-.05-.46-.1-.16-.05-.31-.09-.46-.09-.17 0-.34.04-.5.09-.16.05-.32.1-.47.1-.16 0-.31-.05-.46-.1-.16-.05-.31-.09-.46-.09-.17 0-.34.04-.5.09-.16.05-.32.1-.47.1h-.92c-.32 0-.63-.13-.85-.35-.22-.22-.35-.53-.35-.85v-2.16c0-.32.13-.63.35-.85.22-.22.53-.35.85-.35h.92c.16 0 .31.05.46.1.16.05.31.09.46.09.17 0 .34-.04.5-.09.16-.05.32-.1.47-.1.16 0 .31.05.46.1.16.05.31.09.46.09.17 0 .34-.04.5-.09.16-.05.32-.1.47-.1.16 0 .31.05.46.1.16.05.31.09.46.09.17 0 .34-.04.5-.09.16-.05.32-.1.47-.1.16 0 .31.05.46.1.16.05.31.09.46.09.17 0 .34-.04.5-.09.16-.05.32-.1.47-.1.16 0 .31.05.46.1.16.05.31.09.46.09.17 0 .34-.04.5-.09.16-.05.32-.1.47-.1.16 0 .31.05.46.1.16.05.31.09.46.09.17 0 .34-.04.5-.09.16-.05.32-.1.47-.1.16 0 .31.05.46.1.16.05.31.09.46.09.17 0 .34-.04.5-.09.16-.05.32-.1.47-.1h.46c.16 0 .31.05.46.1.16.05.31.09.46.09.17 0 .34-.04.5-.09.16-.05.32-.1.47-.1.16 0 .31.05.46.1.16.05.31.09.46.09.17 0 .34-.04.5-.09.16-.05.32-.1.47-.1.16 0 .31.05.46.1.16.05.31.09.46.09.17 0 .34-.04.5-.09.16-.05.32-.1.47-.1.16 0 .31.05.46.1.16.05.31.09.46.09.17 0 .34-.04.5-.09.16-.05.32-.1.47-.1.16 0 .31.05.46.1.16.05.31.09.46.09.17 0 .34-.04.5-.09.16-.05.32-.1.47-.1.16 0 .31.05.46.1.16.05.31.09.46.09.17 0 .34-.04.5-.09.16-.05.32-.1.47-.1h.46c.16 0 .31.05.46.1.16.05.31.09.46.09.17 0 .34-.04.5-.09.16-.05.32-.1.47-.1.16 0 .31.05.46.1.16.05.31.09.46.09.17 0 .34-.04.5-.09.16-.05.32-.1.47-.1.16 0 .31.05.46.1.16.05.31.09.46.09.17 0 .34-.04.5-.09.16-.05.32-.1.47-.1.16 0 .31.05.46.1.16.05.31.09.46.09.17 0 .34-.04.5-.09.16-.05.32-.1.47-.10h.92c.32 0 .63.13.85.35.22.22.35.53.35.85v2.16c0 .32-.13.63-.35.85-.22.22-.53.35-.85.35h-.92c-.16 0-.31-.05-.46-.10-.16-.05-.31-.09-.46-.09-.17 0-.34.04-.50.09-.16.05-.32.10-.47.10-.16 0-.31-.05-.46-.10-.16-.05-.31-.09-.46-.09-.17 0-.34.04-.50.09-.16.05-.32.10-.47.10-.16 0-.31-.05-.46-.10-.16-.05-.31-.09-.46-.09-.17 0-.34.04-.50.09-.16.05-.32.10-.47.10-.16 0-.31-.05-.46-.10-.16-.05-.31-.09-.46-.09-.17 0-.34.04-.50.09-.16.05-.32.10-.47.10-.16 0-.31-.05-.46-.10-.16-.05-.31-.09-.46-.09-.17 0-.34.04-.50.09-.16.05-.32.10-.47.10-.16 0-.31-.05-.46-.10-.16-.05-.31-.09-.46-.09-.17 0-.34.04-.50.09-.16.05-.32.10-.47.10-.16 0-.31-.05-.46-.10-.16-.05-.31-.09-.46-.09-.17 0-.34.04-.50.09-.16.05-.32.10-.47.10h-.46c-.16 0-.31.05-.46.10-.16.05-.31.09-.46.09-.17 0-.34-.04-.50-.09-.16-.05-.32-.10-.47-.10-.16 0-.31.05-.46.10-.16.05-.31.09-.46.09-.17 0-.34-.04-.50-.09-.16-.05-.32-.10-.47-.10-.16 0-.31.05-.46.10-.16.05-.31.09-.46.09-.17 0-.34-.04-.50-.09-.16-.05-.32-.10-.47-.10-.16 0-.31.05-.46.10-.16.05-.31.09-.46.09-.17 0-.34-.04-.50-.09-.16-.05-.32-.10-.47-.10-.16 0-.31.05-.46.10-.16.05-.31.09-.46.09-.17 0-.34-.04-.50-.09-.16-.05-.32-.10-.47-.10h-.92c-.32 0-.63-.13-.85-.35-.22-.22-.35-.53-.35-.85v-2.16c0-.32.13-.63.35-.85.22-.22.53-.35.85-.35h.92c.16 0 .31.05.46.10.16.05.31.09.46.09.17 0 .34-.04.50-.09.16-.05.32-.10.47-.10.16 0 .31.05.46.10.16.05.31.09.46.09.17 0 .34-.04.50-.09.16-.05.32-.10.47-.10.16 0 .31.05.46.10.16.05.31.09.46.09.17 0 .34-.04.50-.09.16-.05.32-.10.47-.10.16 0 .31.05.46.10.16.05.31.09.46.09.17 0 .34-.04.50-.09.16-.05.32-.10.47-.10.16 0 .31.05.46.10.16.05.31.09.46.09.17 0 .34-.04.50-.09.16-.05.32-.10.47-.10h.46c.16 0 .31.05.46.10.16.05.31.09.46.09.17 0 .34-.04.50-.09.16-.05.32-.10.47-.10.16 0 .31.05.46.10.16.05.31.09.46.09.17 0 .34-.04.50-.09.16-.05.32-.10.47-.10.16 0 .31.05.46.10.16.05.31.09.46.09.17 0 .34-.04.50-.09.16-.05.32-.10.47-.10h.46c.16 0 .31.05.46.10.16.05.31.09.46.09.17 0 .34-.04.50-.09.16-.05.32-.10.47-.10.16 0 .31.05.46.10.16.05.31.09.46.09.17 0 .34-.04.50-.09.16-.05.32-.10.47-.10.16 0 .31.05.46.10.16.05.31.09.46.09.17 0 .34-.04.50-.09.16-.05.32-.10.47-.10.16 0 .31.05.46.10.16.05.31.09.46.09.17 0 .34-.04.50-.09.16-.05.32-.10.47-.10.16 0 .31.05.46.10.16.05.31.09.46.09.17 0 .34-.04.50-.09.16-.05.32-.10.47-.10h.92c.32 0 .63.13.85.35.22.22.35.53.35.85v2.16c0 .32-.13.63-.35.85-.22.22-.53.35-.85.35h-.92z" fill="currentColor"/>
<path d="M7.58 4.36V27.67c0 .73-.58 1.33-1.31 1.33H3.69c-.73 0-1.33-.6-1.33-1.33V4.36c0-.73.6-1.33 1.33-1.33h2.58c.73 0 1.31.6 1.31 1.33zM19.38 4.36v23.31c0 .73-.58 1.33-1.31 1.33h-2.58c-.73 0-1.33-.6-1.33-1.33V4.36c0-.73.6-1.33 1.33-1.33h2.58c.73 0 1.31.6 1.31 1.33z" fill="currentColor"/>
<path d="M41.21 14.23c0 3.31-2.69 6-6 6s-6-2.69-6-6 2.69-6 6-6c3.31 0 6 2.69 6 6zm-8.69-3.31h4.38c4.5 0 8.13 3.63 8.13 8.13s-3.63 8.13-8.13 8.13h-4.38V10.92z" fill="currentColor"/>
<path d="M65.88 25.75c-.62 1.5-2.31 2.5-4.19 2.5s-3.56-1-4.19-2.5h8.38zm-6.19-15.69h4.38c4.5 0 8.13 3.63 8.13 8.13s-3.63 8.13-8.13 8.13h-4.38V10.06z" fill="currentColor"/>
<path d="M84.13 25.75c-.62 1.5-2.31 2.5-4.19 2.5s-3.56-1-4.19-2.5h8.38zm-6.19-15.69h4.38c4.5 0 8.13 3.63 8.13 8.13s-3.63 8.13-8.13 8.13h-4.38V10.06z" fill="currentColor"/>
</svg>